<?xml version="1.0" encoding="utf-8"?>
<!-- Generator: Adobe Illustrator 21.0.0, SVG Export Plug-In . SVG Version: 6.00 Build 0)  -->
<svg version="1.1" id="Calque_1" xmlns="http://www.w3.org/2000/svg" xmlns:xlink="http://www.w3.org/1999/xlink" x="0px" y="0px"
	 viewBox="0 0 259.5 95.4" style="enable-background:new 0 0 259.5 95.4;" xml:space="preserve">
<style type="text/css">
	.st0{display:none;fill:#FFFFFF;}
</style>
<path d="M62.7,0.9L39.9,32h-0.1V0.9H33L0,45.8h8.3l24.8-34.7h0.1v34.7h4.9l24.8-34.7H63v34.7v48.8h6.6V45.8V0.9H63H62.7z"/>
<path d="M96.5,0C83.9,0,73.3,10,73.3,23.8c0,12.1,10.6,22.8,23,22.8c13.2,0,23.8-10,23.8-23.6C120.1,10.5,109.9,0,96.5,0L96.5,0z
	 M96.7,40.6c-10.3,0-16.8-8.4-16.8-17.5C79.9,16.5,84.8,6,97,6c9.5,0,16.5,8.1,16.5,17.4C113.5,31.6,107.3,40.6,96.7,40.6L96.7,40.6
	z"/>
<path d="M157.9,35.4c3.9,6.7,10.9,11.2,19.8,11.2c2.9,0,7-0.8,7.9-1.3v-6.9c-2.6,1.5-5.2,2.2-7.8,2.2c-8.3,0-14.9-5.8-16.3-14.5
	h23.6v-6h-23.6c1.6-8.8,7.8-14.1,16-14.1c3.3,0,5.7,0.5,8.1,2.1V1.3C183.4,0.6,181,0,177.3,0c-8.5,0-15.8,4.5-19.7,11.4
	c-3.6-6.2-10.1-10.6-18.8-10.6h-15.6v44.9h14.6C147.3,45.8,154.2,42,157.9,35.4L157.9,35.4z M129.9,39.8V6.9h8.1
	c9.2,0,16.3,6.5,16.3,16.6s-6.2,16.3-16.6,16.3H129.9L129.9,39.8z"/>
<path d="M218.8,45.8L206.2,29c6.3-0.2,12.9-4.7,12.9-13.2c0-9.2-4.8-14.9-15.6-14.9h-14.4v44.9h6.6V25h0.1l14.8,20.8H218.8
	L218.8,45.8z M195.7,24.1V6.9h6.9c5.8,0,10,3.2,10,8.4c0,5.8-4.4,8.8-12.1,8.8H195.7L195.7,24.1z"/>
<path d="M229.3,11.1h0.1l22.2,34.7h6.8V0.9h-6.6V35h-0.1L229.9,0.9h-7.2v44.9h6.6V11.1z"/>
<path d="M156.8,94.6h8l9.1-13.2h15.3v13.2h6.6V49.6h-8.1L156.8,94.6L156.8,94.6z M189.1,58.1v17.2h-11.2L189,58.1H189.1L189.1,58.1z
	"/>
<path d="M225.9,49.6l-9.8,21.1l-9.9-21.1h-7.3l14,28.7v16.2h6.6V78.3l13.9-28.7H225.9z"/>
<path d="M246.2,67.3c-4.4-1.4-6.5-3.2-6.5-6.4c0-3.2,2.9-6.1,6-6.1c3.7,0,6.3,2.4,6.3,6.5h6.6c-0.1-7.8-5.5-12.5-12.9-12.5
	c-6.9,0-12.6,5.4-12.6,12.3c0,6.4,2.4,10,13.5,13.8c4.8,1.6,6.3,3.7,6.3,7c0,4.4-2.8,7.6-7.2,7.6c-4.4,0-7.2-3.3-7.3-8.1h-6.6
	c0.1,8.4,5.8,14.2,13.8,14.2s13.8-5.5,13.8-13.6S255.9,70.4,246.2,67.3L246.2,67.3z"/>
<path d="M138.9,49.6h-15.6v44.9h14.6c14.2,0,22.9-8.8,22.9-22.5C160.8,60.4,152.5,49.6,138.9,49.6z M137.7,88.5h-7.8V55.6h8.1
	c9.2,0,16.3,6.5,16.3,16.6C154.3,82.3,148.1,88.5,137.7,88.5L137.7,88.5z"/>
<path class="st0" d="M268.9,0.9h-6.8v1h2.8v7.5h1.1V1.8h2.8"/>
</svg>
