<?xml version="1.0" encoding="UTF-8"?>
<svg id="Calque_1" xmlns="http://www.w3.org/2000/svg" version="1.1" viewBox="0 0 278.5 95.4">
  <!-- Generator: Adobe Illustrator 30.3.0, SVG Export Plug-In . SVG Version: 2.1.3 Build 182)  -->
  <defs>
    <style>
      .st0 {
        fill: #010101;
      }
    </style>
  </defs>
  <path class="st0" d="M63,45.8V11.1h-.1l-24.8,34.7h-4.9V11.1h-.1L8.3,45.8H0L33,.9h6.8v31.2h.1L62.7.9h6.8v44.9h-6.6Z"/>
  <path class="st0" d="M96.3,46.6c-12.5,0-23-10.7-23-22.8S83.9,0,96.5,0s23.6,10.5,23.6,23-10.5,23.6-23.7,23.6ZM113.5,23.4c0-9.3-7-17.4-16.5-17.4s-17.1,10.4-17.1,17.1,6.6,17.5,16.8,17.5,16.8-9,16.8-17.2Z"/>
  <path class="st0" d="M123.3,45.8V.9h15.6c13.6,0,21.9,10.7,21.9,22.5s-8.7,22.5-22.9,22.5h-14.6ZM137.7,39.8c10.4,0,16.6-6.1,16.6-16.3s-7.1-16.6-16.3-16.6h-8.1v32.9h7.8Z"/>
  <path class="st0" d="M185.6,45.3c-.9.5-5,1.3-7.9,1.3-13.6,0-23-10.6-23-23.5S164.6,0,177.3,0s6.1.5,8.3,1.3v6.7c-2.4-1.5-4.7-2.1-8.1-2.1-8.2,0-14.5,5.3-16,14.1h23.6v6h-23.6c1.5,8.7,8.1,14.5,16.3,14.5s5.2-.7,7.8-2.2v6.9Z"/>
  <path class="st0" d="M210.6,45.8l-14.8-20.8h-.1v20.8h-6.6V.9h14.4c10.8,0,15.6,5.7,15.6,14.9s-6.6,13.1-12.9,13.2l12.6,16.8h-8.2ZM200.5,24.1c7.7,0,12.1-3,12.1-8.8s-4.1-8.4-10-8.4h-6.9v17.2h4.8Z"/>
  <path class="st0" d="M251.7,45.8l-22.2-34.7h-.1v34.7h-6.6V.9h7.2l21.9,34.2h.1V.9h6.6v44.9h-6.8Z"/>
  <path class="st0" d="M189.1,94.5v-13.2h-15.3l-9,13.2h-8l30.9-44.9h8.1v44.9h-6.6ZM189.1,58.1h-.1l-11.1,17.2h11.2v-17.2Z"/>
  <path class="st0" d="M212.8,94.5v-16.2l-14-28.7h7.3l9.9,21.1,9.8-21.1h7.3l-13.8,28.7v16.2h-6.6Z"/>
  <path class="st0" d="M252,61.3c0-4.1-2.6-6.5-6.3-6.5s-6,2.9-6,6.1,2.1,5,6.5,6.4c9.7,3.1,13.3,6.7,13.3,14.5s-5.8,13.6-13.8,13.6-13.7-5.7-13.8-14.1h6.6c0,4.9,2.9,8.1,7.3,8.1s7.2-3.2,7.2-7.6-1.5-5.3-6.3-7c-11.1-3.8-13.5-7.4-13.5-13.8s5.6-12.3,12.6-12.3,12.8,4.7,12.9,12.5h-6.6Z"/>
  <rect class="st0" x="123.3" y="52.6" width="6.6" height="38.9"/>
  <path class="st0" d="M138.9,49.6h-15.6v6h6.6s8.1,0,8.1,0c9.2,0,16.3,6.5,16.3,16.6s-6.2,16.3-16.6,16.3h-14.4v6h14.6c14.2,0,22.9-8.7,22.9-22.5s-8.3-22.5-21.9-22.5Z"/>
  <rect class="st0" x="63" y=".9" width="6.6" height="93.7"/>
  <g>
    <path class="st0" d="M264.9,1.8h-2.8v-1h6.8v1h-2.8v7.5h-1.1V1.8Z"/>
    <path class="st0" d="M270,.9h1.6l1.8,4.8c.4,1.1.7,1.9.9,2.5h0c.2-.6.5-1.6.9-2.5l1.8-4.8h1.6v8.5h-1.1v-5.1c0-.3,0-1.3,0-1.9h0c-.3.9-.5,1.5-.7,1.9l-2,5.1h-1.1l-2-5.1c-.2-.4-.4-1.2-.7-1.9h0c0,.7,0,1.7,0,1.9v5.1h-1.1V.9Z"/>
  </g>
</svg>