<svg width="141" height="137" viewBox="0 0 141 137" fill="none" xmlns="http://www.w3.org/2000/svg">
<path d="M13.3694 11.5467V15.8026H30.5133V26.8679H13.3694V30.9432H34.6488V42.5587H0V0H34.6488V11.5467H13.3694Z" fill="#0017FF"/>
<path d="M79.8212 21.2793C79.8212 34.408 69.7275 42.5587 56.4182 42.5587H37.6924V0H56.4182C69.7361 0 79.8212 8.08185 79.8212 21.2793ZM66.2024 21.2793C66.2024 15.8112 62.0669 11.6757 56.4182 11.6757H51.0102V30.883H56.4182C62.0755 30.7626 66.2024 26.6873 66.2024 21.2793Z" fill="#0017FF"/>
<path d="M81.6438 0H95.0218V42.5587H81.6438V0Z" fill="#0017FF"/>
<path d="M139.764 11.7359H125.595V42.5587H112.217V11.7359H98.0483V0H139.756V11.7359H139.764Z" fill="#0017FF"/>
<path d="M31.9148 46.4277H45.2928V88.9864H31.9148V46.4277Z" fill="#0017FF"/>
<path d="M95.2026 67.7069C95.2026 80.8958 85.4785 89.7171 71.8598 89.7171H71.6792C58.3614 89.7171 48.3364 80.9044 48.3364 67.7069C48.3364 54.5094 58.0604 45.6968 71.6792 45.6968H71.8598C85.4785 45.6968 95.2026 54.5696 95.2026 67.7069ZM81.5838 67.7069C81.5838 62.1786 77.6288 58.1635 71.8598 58.1635H71.6792C65.9015 58.1635 61.9552 62.1786 61.9552 67.7069C61.9552 73.2352 65.9101 77.2504 71.6792 77.2504H71.8598C77.6374 77.2504 81.5838 73.2954 81.5838 67.7069Z" fill="#0017FF"/>
<path d="M139.764 46.4277V88.9864H126.636L110.162 66.6152V88.9864H97.0337V46.4277H110.162L126.636 68.2487V46.4277H139.764Z" fill="#0017FF"/>
<path d="M140.667 121.365C140.667 130.118 134.468 136.136 120.179 136.136H119.147C102.124 136.136 99.3293 126.653 99.3293 120.935H112.768C113.129 123.068 115.682 124.22 119.998 124.22H120.179C124.985 124.22 126.988 123.248 126.988 121.606C126.988 120.394 125.956 119.353 122.853 119.353H115.923C105.348 119.353 99.9914 114.487 99.9914 106.956C99.9914 99.424 104.797 92.1245 119.809 92.1245H120.42C137.624 92.1245 139.756 102.76 139.756 106.895H126.318C126.077 105.133 124.435 103.611 120.058 103.611H119.818C114.771 103.611 113.619 105.012 113.619 106.285C113.619 107.557 114.65 108.538 117.385 108.538H125.346C135.44 108.538 140.667 113.825 140.667 121.365Z" fill="#0017FF"/>
</svg>
