<svg width="207" height="112" viewBox="0 0 207 112" fill="none" xmlns="http://www.w3.org/2000/svg">
<g clip-path="url(#clip0_244_479)">
<path d="M67.1746 17.4175C63.2799 17.4175 61.7227 22.1703 61.7227 29.3496C61.7227 36.5289 63.2799 41.2333 67.1746 41.2333C71.0693 41.2333 72.7202 36.7225 72.7202 29.3496C72.7202 21.9767 71.0659 17.4175 67.1746 17.4175Z" fill="#FF5A00"/>
<path d="M138.511 31.3857H135.299V40.601H138.948C142.402 40.601 144.546 39.049 144.546 35.9934C144.546 32.5506 142.357 31.3857 138.511 31.3857Z" fill="#FF5A00"/>
<path d="M144.06 21.6381C144.06 19.3118 142.357 18.1953 139.34 18.1953H135.299V25.7134H139.097C142.357 25.7134 144.06 24.5485 144.06 21.6381Z" fill="#FF5A00"/>
<path d="M169.558 17.4175C165.663 17.4175 164.106 22.1703 164.106 29.3496C164.106 36.5289 165.663 41.2333 169.558 41.2333C173.453 41.2333 175.103 36.7225 175.103 29.3496C175.103 21.9767 173.449 17.4175 169.558 17.4175Z" fill="#FF5A00"/>
<path d="M169.558 47.1477C160.894 47.1477 156.809 40.0652 156.809 29.3463C156.809 18.6275 160.898 11.4966 169.558 11.4966C178.218 11.4966 182.307 18.5307 182.307 29.3463C182.307 40.162 178.218 47.1477 169.558 47.1477ZM140.117 46.5186H128.242V12.2778H140.796C147.854 12.2778 151.454 15.1398 151.454 20.7671C151.454 23.6776 149.8 27.1687 144.837 28.4303C149.8 29.692 151.943 33.4735 151.943 36.9681C151.943 42.9341 147.806 46.5221 140.117 46.5221M120.265 46.4702H113.259L113.308 19.5539L106.347 46.4702H100.264L93.2586 19.5539L93.3557 46.4702H86.298V12.2778H97.0527L103.282 37.0614L109.51 12.2778H120.265V46.4702ZM67.1746 47.1477C58.5112 47.1477 54.4257 40.0652 54.4257 29.3463C54.4257 18.6275 58.5146 11.4966 67.1746 11.4966C75.8346 11.4966 79.9235 18.5307 79.9235 29.3463C79.9235 40.162 75.8346 47.1477 67.1746 47.1477ZM37.5393 46.9058C28.8273 46.9058 24.6932 40.0168 24.6932 29.056C24.6932 18.0952 28.8307 11.2097 37.6849 11.2097C45.7622 11.2097 49.5113 15.8173 49.5113 23.6257H41.7739C41.7739 20.0862 40.8964 17.1273 37.5878 17.1273C33.3046 17.1273 32.285 21.3478 32.285 29.0594C32.285 36.7711 33.6965 40.9915 37.834 40.9915C40.9484 40.9915 42.0687 38.7621 42.0687 35.0739H49.8061C49.8061 42.35 45.4744 46.9092 37.5427 46.9092M0 58.3608H207V0H0V58.3608Z" fill="#FF5A00"/>
<path d="M36.9739 73.5352C37.123 73.0374 37.5219 72.7886 38.0213 72.7886H42.516C43.2651 72.7886 43.5148 73.2863 43.0154 73.8843L35.5762 82.2423C35.2259 82.6398 34.8791 82.7401 34.6294 82.5914C34.3312 82.3909 34.2791 82.0937 34.4283 81.5441L36.9739 73.5317V73.5352ZM30.7312 93.6386H39.3669C39.9669 93.6386 40.2652 93.2895 40.1646 92.6915C39.6166 89.4562 38.1669 87.1195 35.323 87.1195C32.4792 87.1195 30.6792 89.5564 29.9301 92.6431C29.7809 93.2895 30.1312 93.6386 30.7277 93.6386M25.9382 98.6645C25.9382 92.5948 28.7821 84.9315 36.523 84.9315C42.3148 84.9315 45.1587 88.8617 45.7587 94.4855C45.8073 95.0835 45.4605 95.4291 44.8605 95.4291H30.7312C30.1312 95.4291 29.7809 95.7783 29.833 96.3763C30.2804 101.8 32.7289 107.323 38.0698 107.323C41.3646 107.323 43.1125 105.232 44.4096 102.297C44.6593 101.751 44.9576 101.551 45.3599 101.651C45.7587 101.8 45.9078 102.1 45.8107 102.595C44.6628 107.223 41.5172 112 35.9265 112C29.1359 112 25.9417 105.083 25.9417 98.6645" fill="#FF5A00"/>
<path d="M59.9886 108.765C61.5354 108.765 62.9331 108.067 64.1331 106.826C64.4833 106.477 64.5805 106.127 64.5805 105.682V93.0443C64.5805 90.3067 62.5828 86.8743 59.1389 86.8743C54.6442 86.8743 53.2465 93.0443 53.2465 97.2717C53.2465 102.049 55.043 108.765 59.9852 108.765M48.3564 99.4597C48.3564 93.1894 52.0015 84.9317 59.5378 84.9317C60.8349 84.9317 61.9343 85.1806 63.481 86.0274C64.1296 86.3765 64.5805 86.1277 64.5805 85.4294V82.5432C64.5805 79.4081 64.7816 77.1198 62.3331 77.6176C61.6325 77.7662 61.1851 77.7178 60.984 77.2685C60.7828 76.8191 61.0846 76.3214 61.7331 76.0241L64.629 74.7313L67.2232 73.6356C67.622 73.4351 67.9723 73.3867 68.3711 73.3867C68.77 73.3867 69.0197 73.7358 69.0197 74.282V102.643C69.0197 105.778 68.8185 108.067 71.267 107.569C71.9641 107.42 72.415 107.469 72.6162 107.918C72.8138 108.364 72.5156 108.862 71.867 109.162L68.9711 110.455L66.3735 111.551C65.9747 111.751 65.6244 111.8 65.2255 111.8C64.8267 111.8 64.577 111.451 64.577 110.904V110.206C64.577 109.46 63.9284 109.359 63.1308 110.009C61.3828 111.402 59.836 112 57.8904 112C51.6997 112 48.3564 105.381 48.3564 99.4597Z" fill="#FF5A00"/>
<path d="M78.8623 74.2334C80.7108 74.2334 81.9594 75.775 81.9594 77.3685C81.9594 79.1106 80.6103 80.4552 78.8623 80.4552C77.1144 80.4552 75.7167 79.1106 75.7167 77.3685C75.7167 75.6264 77.1144 74.2334 78.8623 74.2334ZM73.8196 110.507V110.458C73.8196 109.912 74.1179 109.663 74.6693 109.563C76.9167 109.214 76.9167 107.223 76.9167 103.542V94.285C76.9167 91.1499 77.1178 88.8616 74.6693 89.3594C73.9687 89.508 73.5214 89.4596 73.3202 89.0103C73.119 88.5609 73.4208 88.0666 74.0693 87.7659L76.9652 86.4731L79.5629 85.3774C79.9617 85.1804 80.312 85.1285 80.7108 85.1285C81.1097 85.1285 81.3594 85.4776 81.3594 86.0238V103.538C81.3594 107.22 81.3594 109.21 83.6067 109.56C84.1547 109.66 84.4564 109.909 84.4564 110.455V110.503C84.4564 111.049 84.1061 111.399 83.6067 111.399H74.6693C74.1699 111.399 73.8196 111.049 73.8196 110.503" fill="#FF5A00"/>
<path d="M89.1974 105.132V88.5647C89.1974 88.0185 88.8471 87.6694 88.2991 87.6694H86.402C85.8541 87.6694 85.5038 87.4724 85.5038 87.1716C85.5038 86.8225 85.7015 86.5737 86.1038 86.3248C89.1488 84.434 90.8482 81.5478 92.343 77.9668C92.5407 77.469 92.8424 77.2686 93.1407 77.2686C93.4389 77.2686 93.6401 77.6177 93.6401 78.1638V84.6311C93.6401 85.1772 93.9903 85.5263 94.5383 85.5263H98.1313C98.6793 85.5263 99.0296 85.8754 99.0296 86.4216V86.7707C99.0296 87.3168 98.6793 87.6659 98.1313 87.6659H94.5383C93.9903 87.6659 93.6401 88.0151 93.6401 88.5612V104.534C93.6401 106.076 93.6401 108.613 95.7869 108.613C96.6851 108.613 97.5834 108.167 98.2319 107.019C98.4816 106.573 98.7833 106.373 99.1822 106.421C99.5325 106.47 99.633 106.967 99.2827 107.714C98.0828 110.351 96.1857 111.993 93.7406 111.993C90.3973 111.993 89.1974 108.661 89.1974 105.129" fill="#FF5A00"/>
<path d="M105.921 74.2334C107.769 74.2334 109.014 75.775 109.014 77.3685C109.014 79.1106 107.665 80.4552 105.921 80.4552C104.176 80.4552 102.775 79.1106 102.775 77.3685C102.775 75.6264 104.173 74.2334 105.921 74.2334ZM100.878 110.507V110.458C100.878 109.912 101.176 109.663 101.728 109.563C103.975 109.214 103.975 107.223 103.975 103.542V94.285C103.975 91.1499 104.176 88.8616 101.728 89.3594C101.027 89.508 100.58 89.4596 100.379 89.0103C100.178 88.5609 100.479 88.0666 101.128 87.7659L104.024 86.4731L106.618 85.3774C107.017 85.1804 107.367 85.1285 107.766 85.1285C108.165 85.1285 108.414 85.4776 108.414 86.0238V103.538C108.414 107.22 108.414 109.21 110.662 109.56C111.21 109.66 111.511 109.909 111.511 110.455V110.503C111.511 111.049 111.161 111.399 110.662 111.399H101.724C101.225 111.399 100.875 111.049 100.875 110.503" fill="#FF5A00"/>
<path d="M130.482 96.4248C129.036 91.6478 125.492 85.9755 120.397 87.4688C115.555 88.962 116.402 96.2761 117.501 99.8571C118.947 104.582 122.644 110.804 127.784 109.262C132.577 107.821 131.53 99.8571 130.479 96.4248M124.094 84.9316C130.732 84.9316 135.376 90.355 135.376 98.2153C135.376 106.076 130.732 112 124.094 112C117.456 112 112.812 106.179 112.812 98.2153C112.812 90.2513 117.456 84.9316 124.094 84.9316Z" fill="#FF5A00"/>
<path d="M151.901 110.507V110.458C151.901 109.912 152.2 109.663 152.751 109.563C154.999 109.214 154.999 107.223 154.999 103.542V95.0318C154.999 92.944 154.898 88.5645 151.305 88.5645C149.758 88.5645 148.111 89.4114 146.113 91.4991C145.763 91.8482 145.662 92.1974 145.662 92.6433V103.542C145.662 107.223 145.662 109.214 147.91 109.563C148.458 109.663 148.759 109.912 148.759 110.458V110.507C148.759 111.053 148.409 111.402 147.91 111.402H139.024C138.525 111.402 138.175 111.053 138.175 110.507V110.458C138.175 109.912 138.473 109.663 139.024 109.563C141.272 109.214 141.272 107.223 141.272 103.542V94.2851C141.272 91.15 141.469 88.8618 139.076 89.4079C138.376 89.5565 137.88 89.4563 137.679 89.0104C137.477 88.561 137.779 88.0668 138.428 87.766L141.324 86.4733L143.869 85.3775C144.268 85.1805 144.618 85.1287 145.017 85.1287C145.416 85.1287 145.666 85.4778 145.666 86.0239V88.1151C145.666 88.9102 146.165 89.1106 146.765 88.5127C148.413 86.8224 150.861 84.9316 153.306 84.9316C158.349 84.9316 159.448 90.1545 159.448 94.5824V103.538C159.448 107.22 159.448 109.211 161.696 109.56C162.244 109.66 162.545 109.909 162.545 110.455V110.503C162.545 111.05 162.195 111.399 161.696 111.399H152.758C152.259 111.399 151.908 111.05 151.908 110.503" fill="#FF5A00"/>
<path d="M165.185 111.105V103.293C165.185 102.747 165.434 102.398 165.785 102.398C166.183 102.398 166.433 102.647 166.582 103.193C167.532 106.974 169.478 110.158 173.023 110.158C175.717 110.158 177.115 108.07 177.115 106.027C177.115 103.141 174.368 101.599 171.025 100.206C166.783 98.4642 165.035 95.8268 165.035 92.4428C165.035 88.4125 167.432 84.9282 171.875 84.9282C174.372 84.9282 176.269 85.9721 177.216 85.9721C177.465 85.9721 177.715 85.9237 177.965 85.5746C178.315 85.1771 178.513 84.9282 178.863 84.9282C179.161 84.9282 179.362 85.2773 179.362 85.8235L179.314 92.7401C179.314 93.2862 179.064 93.6353 178.714 93.6353C178.315 93.6353 178.065 93.3865 177.965 92.8403C177.167 89.3561 175.818 86.7706 172.322 86.7706C169.627 86.7706 168.278 88.5127 168.278 90.5037C168.278 92.4947 169.627 93.739 172.221 95.132C179.31 98.9135 181.058 100.905 181.058 104.486C181.058 109.411 177.614 112 173.071 112C170.477 112 168.08 110.904 167.279 110.904C166.88 110.904 166.631 111.005 166.482 111.254C166.183 111.699 166.083 112 165.733 112C165.434 112 165.185 111.651 165.185 111.105Z" fill="#FF5A00"/>
</g>
<defs>
<clipPath id="clip0_244_479">
<rect width="207" height="112" fill="white"/>
</clipPath>
</defs>
</svg>
