<svg width="155" height="137" viewBox="0 0 155 137" fill="none" xmlns="http://www.w3.org/2000/svg">
<path d="M42.1288 23.1536C42.1288 36.5317 34.1673 43.2809 21.159 43.2809H20.9784C7.96148 43.2809 0 36.9616 0 23.1536H13.378C13.378 27.6502 15.3813 30.8142 20.9784 30.8142H21.159C26.8163 30.8142 28.7593 27.6502 28.7593 23.1536V11.6671H5.83785V0H42.1288V23.1622V23.1536Z" fill="#0017FF"/>
<path d="M46.8747 67.6984C46.8747 80.8873 37.1507 89.7085 23.5319 89.7085H23.3513C10.0335 89.7085 0.00854492 80.8959 0.00854492 67.6984C0.00854492 54.5009 9.73256 45.6882 23.3513 45.6882H23.5319C37.1507 45.6882 46.8747 54.5611 46.8747 67.6984ZM33.2559 67.6984C33.2559 62.17 29.301 58.1549 23.5319 58.1549H23.3513C17.5737 58.1549 13.6273 62.17 13.6273 67.6984C13.6273 73.2267 17.5823 77.2418 23.3513 77.2418H23.5319C29.3096 77.2418 33.2559 73.2869 33.2559 67.6984Z" fill="#0017FF"/>
<path d="M48.6975 69.5814V46.4192H62.0755V68.3691C62.0755 72.8658 64.0788 76.8207 69.6759 76.8207H69.8565C75.5138 76.8207 77.4569 72.8658 77.4569 68.3691V46.4192H90.8349V69.5814C90.8349 82.7703 82.8734 89.7087 69.8651 89.7087H69.6845C56.6762 89.7087 48.7147 82.7789 48.7147 69.5814H48.6975Z" fill="#0017FF"/>
<path d="M1.21216 116.009V92.8467H14.5902V114.797C14.5902 119.293 16.5935 123.248 22.1906 123.248H22.3711C28.0284 123.248 29.9715 119.293 29.9715 114.797V92.8467H43.3495V116.009C43.3495 129.198 35.3881 136.136 22.3797 136.136H22.1992C9.19083 136.136 1.22935 129.206 1.22935 116.009H1.21216Z" fill="#0017FF"/>
<path d="M46.3848 116.009V92.8467H59.7628V114.797C59.7628 119.293 61.7661 123.248 67.3632 123.248H67.5437C73.201 123.248 75.1441 119.293 75.1441 114.797V92.8467H88.5222V116.009C88.5222 129.198 80.5607 136.136 67.5523 136.136H67.3718C54.3634 136.136 46.402 129.206 46.402 116.009H46.3848Z" fill="#0017FF"/>
<path d="M104.927 104.402V108.658H122.07V119.723H104.927V123.799H126.206V135.414H91.5571V92.8555H126.206V104.402H104.927Z" fill="#0017FF"/>
<path d="M140.796 107.747V92.8555H154.174V107.747L151.741 120.936H143.229L140.796 107.747ZM140.796 122.818H154.174V135.406H140.796V122.818Z" fill="#0017FF"/>
</svg>
